<?xml version="1.0" encoding="UTF-8"?><svg id="Layer_2" xmlns="http://www.w3.org/2000/svg" xmlns:xlink="http://www.w3.org/1999/xlink" viewBox="0 0 418.06 401.4"><defs><style>.cls-1{fill:url(#linear-gradient);}.cls-2{fill:url(#linear-gradient-3);}.cls-3{fill:url(#linear-gradient-4);}.cls-4{fill:url(#linear-gradient-2);}.cls-5{fill:url(#linear-gradient-5);}</style><linearGradient id="linear-gradient" x1="0" y1="278.94" x2="418.06" y2="278.94" gradientUnits="userSpaceOnUse"><stop offset="0" stop-color="#732372"/><stop offset="0" stop-color="#94236c"/><stop offset="1" stop-color="#732372"/></linearGradient><linearGradient id="linear-gradient-2" x1="111.63" y1="104.61" x2="177.8" y2="104.61" xlink:href="#linear-gradient"/><linearGradient id="linear-gradient-3" x1="177.8" y1="28.24" x2="234.28" y2="28.24" xlink:href="#linear-gradient"/><linearGradient id="linear-gradient-4" x1="243.43" y1="104.61" x2="293.92" y2="104.61" xlink:href="#linear-gradient"/><linearGradient id="linear-gradient-5" x1="256.05" y1="28.24" x2="281.3" y2="28.24" xlink:href="#linear-gradient"/></defs><g id="Layer_1-2"><g><path class="cls-1" d="M0,228.22c0,95.64,93.59,173.18,209.03,173.18s209.03-77.54,209.03-173.18S0,132.57,0,228.22Zm209.03,6.49c-84.42,0-152.85-10.66-152.85-23.81s68.44-23.81,152.85-23.81,152.85,10.66,152.85,23.81-68.44,23.81-152.85,23.81Z"/><circle class="cls-4" cx="144.72" cy="104.61" r="33.08"/><circle class="cls-2" cx="206.04" cy="28.24" r="28.24"/><circle class="cls-3" cx="268.68" cy="104.61" r="25.25"/><circle class="cls-5" cx="268.68" cy="28.24" r="12.62"/></g></g></svg>