<?xml version="1.0" encoding="UTF-8"?><svg id="Layer_1" xmlns="http://www.w3.org/2000/svg" xmlns:xlink="http://www.w3.org/1999/xlink" viewBox="0 0 332.92 88.67"><defs><style>.cls-1{fill:url(#linear-gradient);}.cls-2{letter-spacing:0em;}.cls-3{font-family:DomusTitlingExtrabold, 'Domus Titling';font-size:60px;}.cls-4{fill:url(#linear-gradient-3);}.cls-5{fill:url(#linear-gradient-4);}.cls-6{fill:url(#linear-gradient-2);}.cls-7{fill:url(#linear-gradient-5);}.cls-8{letter-spacing:0em;}</style><linearGradient id="linear-gradient" x1="0" y1="60.96" x2="91.37" y2="60.96" gradientUnits="userSpaceOnUse"><stop offset="0" stop-color="#732372"/><stop offset="0" stop-color="#94236c"/><stop offset="1" stop-color="#732372"/></linearGradient><linearGradient id="linear-gradient-2" x1="24.4" y1="22.86" x2="38.86" y2="22.86" xlink:href="#linear-gradient"/><linearGradient id="linear-gradient-3" x1="38.86" y1="6.17" x2="51.2" y2="6.17" xlink:href="#linear-gradient"/><linearGradient id="linear-gradient-4" x1="53.2" y1="22.86" x2="64.24" y2="22.86" xlink:href="#linear-gradient"/><linearGradient id="linear-gradient-5" x1="55.96" y1="6.17" x2="61.48" y2="6.17" xlink:href="#linear-gradient"/></defs><g><path class="cls-1" d="M0,49.88c0,20.9,20.45,37.85,45.68,37.85s45.68-16.95,45.68-37.85S0,28.97,0,49.88Zm45.68,1.42c-18.45,0-33.41-2.33-33.41-5.2s14.96-5.2,33.41-5.2,33.41,2.33,33.41,5.2-14.96,5.2-33.41,5.2Z"/><circle class="cls-6" cx="31.63" cy="22.86" r="7.23"/><circle class="cls-4" cx="45.03" cy="6.17" r="6.17"/><circle class="cls-5" cx="58.72" cy="22.86" r="5.52"/><circle class="cls-7" cx="58.72" cy="6.17" r="2.76"/></g><text class="cls-3" transform="translate(106.78 75.23)"><tspan x="0" y="0">B</tspan><tspan class="cls-2" x="36.36" y="0">E</tspan><tspan class="cls-8" x="68.28" y="0">G</tspan><tspan x="107.82" y="0">GAR</tspan></text></svg>